<svg id="图层_1" data-name="图层 1" xmlns="http://www.w3.org/2000/svg" xmlns:xlink="http://www.w3.org/1999/xlink" viewBox="0 0 32 32"><defs><style>.cls-1{fill:none;}.cls-2,.cls-4{fill:#686868;}.cls-2{stroke:#686868;stroke-miterlimit:10;stroke-width:0.5px;}.cls-3{clip-path:url(#clip-path);}</style><clipPath id="clip-path"><rect id="SVGID" class="cls-1" width="31.91" height="31.96"/></clipPath></defs><title>logo</title><path class="cls-2" d="M15.22,13.21a.9.9,0,1,0,0-1.8,1,1,0,0,0-1.08.9,1,1,0,0,0,1.08.9Zm0,0"/><path class="cls-2" d="M10.18,11.41a1,1,0,0,0-1.09.9,1,1,0,0,0,1.09.9.9.9,0,0,0,0-1.8Zm0,0"/><path class="cls-2" d="M26,19c0-2.85-2.64-5.27-5.88-5.52a.32.32,0,0,0,0-.11c-.65-3-3.91-5.31-7.58-5.31C8.37,8,5,10.92,5,14.47a6.15,6.15,0,0,0,2.82,5l-.64,1.93a.33.33,0,0,0,.31.43.33.33,0,0,0,.15,0L10,20.57l.3.06a10.22,10.22,0,0,0,2.18.29c.23,0,.47,0,.7,0a.32.32,0,0,0,.23-.12,6.46,6.46,0,0,0,6.1,3.75,8.85,8.85,0,0,0,2.11-.34l1.86,1a.33.33,0,0,0,.47-.38l-.48-1.58A5.64,5.64,0,0,0,26,19ZM13.16,20.24l-.64,0a9.68,9.68,0,0,1-2-.27l-.41-.08a.32.32,0,0,0-.21,0L8,20.84l.47-1.41a.33.33,0,0,0-.12-.37,5.54,5.54,0,0,1-2.74-4.59c0-3.19,3.08-5.79,6.87-5.79,3.35,0,6.31,2,6.92,4.75-3.51,0-6.35,2.51-6.35,5.54a4.83,4.83,0,0,0,.18,1.28Zm9.77,2.61a.33.33,0,0,0-.12.36l.31,1-1.27-.7a.33.33,0,0,0-.16,0h-.08a8.68,8.68,0,0,1-2.08.35c-3.19,0-5.79-2.2-5.79-4.89s2.6-4.89,5.79-4.89,5.78,2.24,5.78,4.89a5.13,5.13,0,0,1-2.39,3.88Zm0,0"/><path class="cls-2" d="M17.56,16.63a.72.72,0,0,0,0,1.44.82.82,0,0,0,.9-.72.82.82,0,0,0-.9-.72Zm0,0"/><path class="cls-2" d="M21.51,16.63a.72.72,0,0,0,0,1.44.83.83,0,0,0,.9-.72.83.83,0,0,0-.9-.72Zm0,0"/><g class="cls-3"><path class="cls-4" d="M15.94,31.92A15.94,15.94,0,0,1,1.25,9.77,15.93,15.93,0,0,1,22.14,1.29a15.93,15.93,0,0,1,8.49,20.89,16,16,0,0,1-14.69,9.74Zm0-30.29A14.35,14.35,0,1,0,30.29,16,14.36,14.36,0,0,0,15.94,1.63Zm0,0"/></g></svg>