<svg id="图层_1" data-name="图层 1" xmlns="http://www.w3.org/2000/svg" xmlns:xlink="http://www.w3.org/1999/xlink" viewBox="0 0 32 32"><defs><style>.cls-1{fill:none;}.cls-2{clip-path:url(#clip-path);}.cls-3{fill:#686868;}</style><clipPath id="clip-path"><rect id="SVGID" class="cls-1" width="31.91" height="31.96"/></clipPath></defs><title>logo</title><g class="cls-2"><path class="cls-3" d="M22.49,19a3,3,0,0,0-2.76,1.72l-6.08-2.59a3.58,3.58,0,0,0,.55-1.95,3.68,3.68,0,0,0-.11-.89l3.88-3a3.12,3.12,0,0,0,1.9.62,3,3,0,0,0,3.06-3,3.06,3.06,0,0,0-6.11,0,3.24,3.24,0,0,0,.23,1.2l-3.58,2.75a3.9,3.9,0,1,0-3.21,6.06,4.12,4.12,0,0,0,2.2-.6l7,3a3.05,3.05,0,1,0,3-3.24ZM19.87,8.13a1.73,1.73,0,0,1,1.75,1.75,1.61,1.61,0,0,1-1.75,1.75,1.72,1.72,0,0,1-1.75-1.75,1.89,1.89,0,0,1,1.75-1.75ZM10.27,18.6a2.41,2.41,0,1,1,2.41-2.41,2.43,2.43,0,0,1-2.41,2.41Zm12.22,5.24a1.61,1.61,0,0,1-1.75-1.75,1.75,1.75,0,1,1,3.51,0,1.63,1.63,0,0,1-1.75,1.75Zm0,0"/><path class="cls-3" d="M15.94,31.92A15.94,15.94,0,0,1,1.25,9.77,15.93,15.93,0,0,1,22.14,1.29a15.93,15.93,0,0,1,8.49,20.89,16,16,0,0,1-14.69,9.74Zm0-30.29A14.35,14.35,0,1,0,30.29,16,14.36,14.36,0,0,0,15.94,1.63Zm0,0"/></g></svg>