<svg id="图层_1" data-name="图层 1" xmlns="http://www.w3.org/2000/svg" viewBox="0 0 42 34"><defs><style>.cls-1,.cls-2{fill:#686868;}.cls-1{fill-rule:evenodd;}</style></defs><title>logo</title><path class="cls-1" d="M28.08,31.88v-.64l.1,0a10.9,10.9,0,0,0,2.07.34h0l-.31.06a2.31,2.31,0,0,1-.3.05l-.39.06-.26,0H28.8l-.3,0,.15,0-.29,0h-.28ZM23.47,29c-.22-.14-.43-.27-.63-.42l-.39-.3L22.19,28,22,27.87c-.12-.09-.23-.19-.33-.29l-.11-.1a2,2,0,0,0-.31-.31L21,27l-.1-.13-.13-.12-.25-.28-.15-.17-.14-.19c-.19-.25-.38-.5-.55-.75s-.28-.43-.41-.65l-.24-.39a2.9,2.9,0,0,0-.18-.36,6.15,6.15,0,0,1-.33-.69l-.21-.48,0-.13-.11-.27a1.85,1.85,0,0,0-.06-.19,13.67,13.67,0,0,1-.42-1.41l-.07-.26a2.6,2.6,0,0,1-.05-.3c0-.18-.05-.35-.09-.53l0-.17v-.14l0-.14a3.22,3.22,0,0,0,0-.41,2.92,2.92,0,0,0,0-.42v-.25l0-.08s0,0,0-.06l0-.08v-.37a3.92,3.92,0,0,0,0-.42h0v0l0-.12v-.15l0,.12a3.42,3.42,0,0,0,.06-.41l0-.19v-.12c0-.12,0-.25.06-.38a2.92,2.92,0,0,1,.06-.33l.09-.34c0-.14.07-.29.12-.43l0-.11,0-.11.1-.32c0-.09.06-.19.09-.28.16-.42.31-.79.47-1.11l.16-.33a6.46,6.46,0,0,1,.31-.59,2.41,2.41,0,0,0,.14-.26l.15-.25.15-.24.43-.63.09-.13c.1-.15.22-.28.34-.42l.33-.4a2.16,2.16,0,0,0,.25-.27,1.91,1.91,0,0,1,.19-.2c.14-.14.27-.28.4-.43a2,2,0,0,0,.24-.26c.07-.09.15-.17.22-.25s.29-.33.42-.5l.15-.19.27-.35a10.2,10.2,0,0,0,1.33-2.37,4.44,4.44,0,0,0,.17-.6l0-.12a2.21,2.21,0,0,0,0-.24l.15.05.3.09.61.19a2.72,2.72,0,0,0,.36.09l.82.22.47.12.49.11.21,0a2.22,2.22,0,0,0,.36.06c.18,0,.37.06.55.09l.28,0,.18,0h.25l.17,0h.32l.32,0A4.2,4.2,0,0,0,30.9,5H31l.24,0A5.16,5.16,0,0,0,32,4.64a4,4,0,0,0,1.08-.7A12,12,0,0,0,34,5.51c.21.31.42.62.64.91a3.12,3.12,0,0,0,.22.27l.29.34.12.14.08.11.18.17a3.9,3.9,0,0,0,.47.47,2.32,2.32,0,0,0,.33.31l.22.18c.15.13.3.27.46.38l.45.32.09.06a2.75,2.75,0,0,0,.74.4,2.83,2.83,0,0,0,.92.14l.45,0v.09c0,.23-.08.44-.11.65a3,3,0,0,1-.05.31c0,.14-.06.28-.09.42s0,.21-.07.32l-.09.34c-.08.27-.15.55-.24.8,0,.1-.06.2-.09.29l-.16.42c-.08.21-.17.41-.26.61,0-.1,0-.18-.07-.27-.12-.35-.24-.68-.38-1a7.39,7.39,0,0,0-.74-1.24l-.21-.26-.29-.35-.09-.11-.1-.13-.13-.12a3.93,3.93,0,0,0-.55-.53,2.63,2.63,0,0,0-.36-.31,9.64,9.64,0,0,0-1.89-1c-.21-.09-.44-.16-.66-.23l-.2-.06a3,3,0,0,0-.44-.1,5.26,5.26,0,0,0-.68-.12l-.22,0-.13,0-.4,0a2.9,2.9,0,0,0-.39,0h-.91a2,2,0,0,0-.36,0l-.35,0h-.18l-.12,0a2.91,2.91,0,0,0-.44.07l-.28.06a5.74,5.74,0,0,0-.72.17l-.37.11a7.77,7.77,0,0,0-.9.29l-.19.07L25.36,9,25,9.15l-.18.08a6.09,6.09,0,0,0-.75.38,7.12,7.12,0,0,0-.74.54l-.22.17a2.26,2.26,0,0,0-.29.26,3.42,3.42,0,0,0-.5.49,2.24,2.24,0,0,0-.22.25,2.65,2.65,0,0,0-.32.35l-.19.25c-.13.17-.27.34-.39.52a12.16,12.16,0,0,0-1.64,3.49,7.91,7.91,0,0,0-.2.89c0,.14,0,.28-.08.41l0,.09-.09.73-.06.75v.13a3.13,3.13,0,0,0,0,.44,4.27,4.27,0,0,0,0,.44v.27l0,.18a2.31,2.31,0,0,0,0,.4v.06l0,.29a3,3,0,0,0,.08.59,3.33,3.33,0,0,0,.08.46c0,.1.05.21.08.31s.11.48.19.7a2.75,2.75,0,0,0,.08.3c.14.41.28.81.45,1.2A12,12,0,0,0,23.47,29ZM13,24.68a2.86,2.86,0,0,0-.38-.36L12.28,24c-.2-.17-.4-.34-.61-.49-.58-.43-1.1-.79-1.6-1.1l-.45-.26L9.37,22,9,21.82l-.2-.11a2.08,2.08,0,0,0-.28-.14l-.31-.16-1.05-.48-.48-.18-.22-.08a2.27,2.27,0,0,0-.43-.15l-.55-.18-.17-.05.18,0,.24,0H6.4l.2,0h.21l-.09,0,.25,0,.29.06.1,0,.11,0a7.77,7.77,0,0,1,.9.29A9.91,9.91,0,0,1,10.3,21.8l.25.21.32.27a2.23,2.23,0,0,0,.26.24l.1.09.17.18.11.09.08.11.18.17.1.13.1.09.17.18c.17.21.32.4.48.58s.25.29.36.44l.08.13Z"/><path class="cls-2" d="M25.45,5.86l.78.2.42.11c.21.06.42.1.63.14h.08a3.78,3.78,0,0,0,.52.1l.3.05-.41.08-.16,0a6.89,6.89,0,0,0-.94.22l-.31.09a9.2,9.2,0,0,0-1.08.35l-.15.06-.43.17-.22.1a11.38,11.38,0,0,0,1-1.71m7,.37.12.19.11.16h0a6.36,6.36,0,0,0-.79-.14h0a6.1,6.1,0,0,0,.62-.2m.91-6.53a1.57,1.57,0,0,0-.14.43c-.09.3-.14.62-.24.91a3.29,3.29,0,0,1-1.67,2.11,3.73,3.73,0,0,1-.57.18h-.14a2.3,2.3,0,0,1-.45,0h-.53l-.27,0h-.09c-.29-.07-.61-.07-.9-.14-.09,0-.16,0-.25,0s-.46-.08-.68-.14c-.42-.11-.86-.2-1.26-.33L26,2.6l-.68-.21-.19,0-.48-.16c-.33-.1-.65-.21-1-.33l-.23-.07c-.19-.08-.4-.14-.6-.22-.37-.15-.75-.3-1.11-.46L21.56,1,21.31.92l-.1,0h-.07s0,0,0,0,.16.11.22.15.39.25.58.38a1.7,1.7,0,0,1,.23.23s.09.08.13.13a2.82,2.82,0,0,1,.35.6,2.83,2.83,0,0,1,.09.41,1.84,1.84,0,0,1,0,.4v.14c0,.08,0,.17,0,.26a4.79,4.79,0,0,1-.14.54,8.51,8.51,0,0,1-1.12,2c-.13.18-.27.34-.41.52s-.44.49-.64.75c0,.05-.11.09-.15.15-.2.27-.47.47-.67.73,0,.06-.12.11-.17.17-.25.33-.54.63-.78,1s-.37.52-.55.79-.23.39-.36.58-.07.15-.11.22c-.2.33-.36.69-.54,1s-.37.83-.53,1.26c-.09.24-.15.49-.24.73,0,.07,0,.12,0,.18-.08.27-.15.55-.22.83s-.1.65-.18,1v.07c0,.13,0,.3-.06.44v.18c0,.18,0,.41,0,.59s0,.11,0,.14v.2a2.4,2.4,0,0,0,0,.57v.2c0,.17,0,.35,0,.53s0,.38.06.55v.14c0,.08,0,.17,0,.26.08.31.09.63.17.93a18,18,0,0,0,.54,1.83s0,.08,0,.13l.14.34s0,.09,0,.14c.23.48.41,1,.68,1.43.07.12.11.24.18.36.23.38.44.77.7,1.13s.48.66.73,1,.34.38.5.58c0,0,.09.08.12.12a4,4,0,0,0,.29.31,1.55,1.55,0,0,0,.19.19c.1.08.18.2.28.28s.35.32.55.47l.06.06c.27.2.53.43.81.63s.68.45,1,.67l.31.16a8.18,8.18,0,0,0,.88.46c.5.22,1,.43,1.56.61l.5.14a1.55,1.55,0,0,1,.29.08h0l-.13,0L26,32a3,3,0,0,1-.63-.06h-.11c-.14,0-.3,0-.44-.09s-.2,0-.31-.06c-.34-.1-.68-.17-1-.28a12.83,12.83,0,0,1-2.66-1.26c-.3-.19-.59-.36-.88-.56s-.6-.46-.9-.68-.43-.39-.66-.56c-.08-.06-.14-.15-.21-.21a2.68,2.68,0,0,1-.27-.24l-.11-.11a2.8,2.8,0,0,1-.28-.27,3.45,3.45,0,0,1-.33-.34l-.11-.11L17,27,16.89,27c-.07-.1-.17-.17-.24-.27-.2-.26-.44-.49-.63-.75-.31-.41-.64-.81-.94-1.23L14.56,24c-.08-.12-.15-.26-.24-.38-.26-.35-.57-.67-.83-1-.09-.12-.22-.22-.31-.35l-.09-.08A2,2,0,0,0,12.9,22l-.08-.07a1.72,1.72,0,0,0-.32-.32l-.11-.11a2.6,2.6,0,0,0-.26-.23c-.07-.05-.12-.13-.18-.18-.23-.18-.44-.38-.68-.56A11.52,11.52,0,0,0,9,19.16a9.9,9.9,0,0,0-1.22-.4c-.16,0-.33-.06-.49-.1s-.2,0-.28,0H6.88c-.11,0-.25,0-.36,0H6.38l-.25,0-.25,0H5.61c-.15,0-.33,0-.48.06s-.26,0-.39.06c-.29.07-.57.12-.85.21A9.84,9.84,0,0,0,1.5,20.1,7.8,7.8,0,0,0,.33,21l-.23.23s-.09.06-.09.13l.5,0h.58l.18,0,.18,0h.43c.15,0,.34,0,.48,0h.11c.14,0,.32,0,.46.06h.16c.18,0,.36.06.53.1l.23,0c.23.06.49.1.7.18s.2,0,.3.07.47.13.68.22.17,0,.26.08c.24.11.5.18.74.28l1.05.48L7.8,23,8,23.1l.53.3c.23.14.46.25.68.39.52.33,1,.68,1.51,1,.34.25.64.54,1,.8a2.26,2.26,0,0,1,.21.21l.4.39.59.58a4.31,4.31,0,0,0,.35.34l.08.09a2.25,2.25,0,0,0,.23.21c.05,0,.09.1.14.15s.23.22.36.31.1.12.16.16.31.28.48.41l.1.1c.13.1.24.21.37.31.36.27.7.55,1.06.81s1,.66,1.49,1c.19.12.39.21.58.33l.48.27.13.06c.1.06.22.11.33.17l.17.09,1.3.57c.41.18.86.3,1.29.46.11,0,.22.05.33.09.41.14.88.23,1.33.36.17,0,.34.06.51.11h.09c.25.07.5.07.78.14l.41.06h.14l.29,0h.08a4.55,4.55,0,0,0,.75.06c.29,0,.61,0,.93,0h.85c.12,0,.27,0,.38,0H29l.31,0h.07c.33-.08.66-.09,1-.18.09,0,.16,0,.24,0,.3-.09.62-.14.9-.25a11.56,11.56,0,0,0,1.92-.81c.1-.06.2-.09.3-.15.4-.24.8-.47,1.17-.73a14.26,14.26,0,0,0,1.76-1.5,7.4,7.4,0,0,0,.7-.75c0-.06.11-.1.15-.16.18-.24.38-.45.55-.69s.47-.64.68-1c.11-.18.21-.36.33-.53s.08-.15.12-.23.13-.19.17-.29a1.31,1.31,0,0,1,.14-.28v0c-.06,0-.1.1-.15.15l-.38.39-.13.11a2.46,2.46,0,0,1-.23.22l-.09.09-.16.13c-.05,0-.09.11-.15.15l-.21.16-.06.06-.29.24c-.3.22-.58.46-.88.67a12.53,12.53,0,0,1-2.08,1.2,11.68,11.68,0,0,1-1.12.4c-.12,0-.26.06-.38.09l-.41,0c-.11,0-.24,0-.36,0h-.36a1.35,1.35,0,0,1-.28,0h-.39a10.76,10.76,0,0,1-2.78-.32,9.26,9.26,0,0,1-1.07-.31c-.19-.08-.37-.12-.55-.2a11.41,11.41,0,0,1-1.57-.82,10,10,0,0,1-3.75-4.45c-.15-.34-.28-.7-.4-1.06,0-.1,0-.19-.08-.29-.1-.29-.15-.62-.23-.93,0-.14,0-.3-.08-.43s0-.37-.07-.54v-.15c0-.18,0-.4,0-.59v-.18a1.57,1.57,0,0,1,0-.29,2.06,2.06,0,0,1,0-.38v-.18l0-.61.08-.64c.1-.41.14-.82.26-1.2a10.55,10.55,0,0,1,1.41-3c.18-.25.37-.48.55-.73s.24-.23.33-.36.1-.1.14-.15a1.77,1.77,0,0,1,.33-.33c.07-.06.13-.14.21-.2.27-.21.53-.44.83-.62a4.66,4.66,0,0,1,.56-.28l.51-.23.55-.21c.36-.15.76-.23,1.15-.36s.59-.12.88-.19c.14,0,.28,0,.42-.06h.12c.16,0,.35,0,.51-.06h.92l.21,0,.35,0c.27.06.56.07.8.14s.26,0,.39.09.51.15.75.25a8,8,0,0,1,1.57.88c.09.06.16.16.25.23a2.19,2.19,0,0,1,.39.38l.12.11c.11.15.24.27.35.42s.15.17.21.26a5.89,5.89,0,0,1,.58,1c.12.27.22.55.32.85,0,.14.06.3.1.44s0,.24,0,.36v.09c0,.07,0,.16,0,.25a1,1,0,0,1,0,.26,4.79,4.79,0,0,1-.06.6c0,.08,0,.14,0,.22s-.08.38-.14.56a6.63,6.63,0,0,1-.7,1.47c-.07.11-.13.22-.21.32s-.1.11-.14.17a.86.86,0,0,1-.08.12h0c.21-.09.42-.18.62-.28s.13,0,.18-.09c.23-.15.47-.28.69-.43a7.9,7.9,0,0,0,1.28-1.17,10.57,10.57,0,0,0,1.08-1.55c.09-.15.15-.3.23-.45.24-.46.43-1,.64-1.47.06-.16.09-.31.15-.47.14-.39.24-.82.36-1.23.07-.26.11-.53.18-.79s.09-.64.17-.95c0-.15,0-.33.07-.48s0-.35.06-.51V9c0-.2,0-.44.07-.65V8.12c0-.22,0-.5,0-.73V7.08a.37.37,0,0,1,0-.14V6.22h0a3.3,3.3,0,0,1-.36.56A3.25,3.25,0,0,1,39.88,8a1.79,1.79,0,0,1-.67.13A1.21,1.21,0,0,1,38.82,8a1.45,1.45,0,0,1-.38-.22L38,7.47c-.23-.17-.43-.38-.66-.55s-.14-.16-.23-.23a2.12,2.12,0,0,1-.36-.36l-.16-.15c-.13-.17-.28-.31-.41-.48S36,5.53,36,5.45c-.2-.28-.41-.56-.6-.85a13,13,0,0,1-1.07-2.08A16.53,16.53,0,0,1,33.67.58c-.06-.22-.1-.45-.16-.65s0-.18-.09-.23Z"/><path class="cls-1" d="M30.86,22.53a2.49,2.49,0,0,1,1,.22,5.57,5.57,0,0,1,.82.42c.26.16.49.36.73.54s.45.52.85.61a.64.64,0,0,0,.49-.16l.06-.07a1.31,1.31,0,0,0,.26-.31l.4-.56a1.5,1.5,0,0,1,.3-.35,1.2,1.2,0,0,1,.34-.19,1.22,1.22,0,0,1,.78.08,4.25,4.25,0,0,1,1.34,1,3.57,3.57,0,0,1,.35.38.64.64,0,0,1,.15.21h0a1.21,1.21,0,0,0-.26-.11,5.75,5.75,0,0,0-.56-.19c-.21-.06-.43-.1-.64-.16s-.18,0-.28,0a1.18,1.18,0,0,0-.63,0,1.66,1.66,0,0,0-.65.56c-.07.09-.15.17-.22.26l-.36.48a1.57,1.57,0,0,1-.31.33.75.75,0,0,1-.38.22c-.11,0-.18-.1-.23-.14s-.4-.33-.6-.48a4.75,4.75,0,0,0-1.42-.78c-.15,0-.31-.06-.47-.09l-.22,0h-.13a1.19,1.19,0,0,0-.39,0h-.14c-.09,0-.19,0-.28,0s-.15,0-.23,0-.34.06-.5.1-.47.1-.7.18c-.6.2-1.17.4-1.73.65l-.88.41-.17.09-.11,0a.61.61,0,0,1-.15.08h0a.71.71,0,0,0,.11-.14c.06-.08.14-.15.2-.23s.3-.3.43-.47l.16-.15a3.27,3.27,0,0,1,.33-.31l.08-.09c.09-.07.16-.15.24-.21.26-.2.51-.41.78-.6s.53-.33.8-.49l.26-.13a5.72,5.72,0,0,1,.66-.34,2.71,2.71,0,0,1,.46-.13C30.66,22.54,30.82,22.56,30.86,22.53Z"/><path class="cls-2" d="M30.91,22.53h0a.35.35,0,0,1-.14,0H30.6a2.71,2.71,0,0,0-.46.13,5.72,5.72,0,0,0-.66.34l-.26.13c-.27.16-.54.31-.8.49s-.52.4-.78.6c-.08.06-.16.15-.24.21l-.08.09a3.26,3.26,0,0,0-.33.31l-.16.15c-.13.17-.3.3-.43.47s-.14.15-.2.23a.7.7,0,0,1-.11.14h0a.61.61,0,0,0,.15-.08l.11,0,.17-.09.88-.41c.56-.24,1.13-.45,1.73-.65.23-.08.46-.11.7-.18s.33-.06.5-.1.15,0,.23,0,.19,0,.28,0H31l.19,0,.2,0h.13l.22,0c.16,0,.32,0,.47.09a4.75,4.75,0,0,1,1.42.78c.21.15.4.32.6.48.06,0,.12.14.22.14h0a.75.75,0,0,0,.38-.22,1.57,1.57,0,0,0,.31-.33l.36-.48c.07-.09.15-.17.22-.26a1.66,1.66,0,0,1,.65-.56,1.08,1.08,0,0,1,.39-.07l.23,0c.1,0,.18,0,.28,0s.43.1.64.16a5.76,5.76,0,0,1,.55.19,1.2,1.2,0,0,1,.26.11h0a.64.64,0,0,0-.15-.21,3.57,3.57,0,0,0-.35-.38,4.25,4.25,0,0,0-1.34-1,1.44,1.44,0,0,0-.53-.11.8.8,0,0,0-.25,0,1.2,1.2,0,0,0-.34.18,1.5,1.5,0,0,0-.3.35l-.4.56a1.31,1.31,0,0,1-.26.31l-.06.07a.74.74,0,0,1-.41.17h-.08c-.4-.09-.57-.4-.85-.61s-.47-.38-.73-.54a5.57,5.57,0,0,0-.82-.42,2.51,2.51,0,0,0-1-.22Z"/></svg>